<svg xmlns="http://www.w3.org/2000/svg" xmlns:xlink="http://www.w3.org/1999/xlink" version="1.1" x="0px" y="0px" viewBox="0 0 100 100" enable-background="new 0 0 100 100" xml:space="preserve"><path d="M22.77,45.012L49.354,57.7c0.021,0.011,0.043,0.015,0.064,0.023c0.053,0.022,0.106,0.042,0.161,0.058  c0.042,0.013,0.083,0.022,0.125,0.031c0.053,0.011,0.105,0.019,0.16,0.023c0.043,0.004,0.086,0.006,0.129,0.007  c0.053,0,0.105-0.003,0.158-0.008c0.045-0.004,0.09-0.012,0.134-0.021c0.049-0.01,0.098-0.021,0.146-0.036  c0.049-0.015,0.098-0.032,0.146-0.052c0.022-0.01,0.048-0.015,0.071-0.026l26.584-12.688c0.748-0.356,1.063-1.252,0.707-2  c-0.256-0.538-0.793-0.854-1.354-0.854c-0.217,0-0.438,0.048-0.645,0.146L50,54.686l-25.938-12.38  c-0.209-0.101-0.43-0.146-0.646-0.146c-0.561,0-1.098,0.314-1.354,0.854C21.704,43.76,22.021,44.655,22.77,45.012z"></path></svg>