<svg xmlns="http://www.w3.org/2000/svg" xmlns:xlink="http://www.w3.org/1999/xlink" version="1.1" x="0px" y="0px" viewBox="0 0 100 100" enable-background="new 0 0 100 100" xml:space="preserve"><path d="M54.359,67.641c0.372-0.177,0.533-0.624,0.354-0.999L46.793,50l7.921-16.642c0.177-0.374,0.019-0.822-0.354-1  c-0.374-0.178-0.821-0.019-1,0.355l-8.073,16.964c-0.005,0.011-0.003,0.022-0.008,0.033c-0.038,0.091-0.064,0.188-0.065,0.287v0.004  c0.001,0.101,0.027,0.195,0.065,0.286c0.005,0.012,0.003,0.023,0.008,0.034l8.073,16.964C53.538,67.66,53.985,67.819,54.359,67.641z   M75.75,50c0-14.198-11.552-25.75-25.75-25.75c-14.199,0-25.75,11.552-25.75,25.75S35.801,75.75,50,75.75  C64.198,75.75,75.75,64.198,75.75,50z M25.75,50c0-13.371,10.878-24.25,24.25-24.25c13.371,0,24.25,10.879,24.25,24.25  S63.371,74.25,50,74.25C36.628,74.25,25.75,63.371,25.75,50z"></path></svg>