<svg xmlns="http://www.w3.org/2000/svg" width="26.28" height="25.25" viewBox="0 0 26.28 25.25"><defs><style>.cls-1{fill:#030303;}.cls-2{fill:#f6f6f5;}.cls-3{fill:#cfb97d;}.cls-4{fill:#ccb371;}</style></defs><title>dAsset 1</title><g id="Layer_2" data-name="Layer 2"><g id="Layer_2-2" data-name="Layer 2"><path class="cls-1" d="M26.28,6.49v5.6H24.45v9.82a16,16,0,0,1-1.17,1.16c-.84.65-1.51,1.47-2.3,2.18H10.87L7.43,21.81V18.63H3.32L0,15.31v-12L3.35,0H15.41c1.1,1.1,2.2,2.19,3.31,3.31V6.49ZM14.94.81H3.78l-3,3c0,3.53,0,7.08,0,10.62a1.17,1.17,0,0,0,.41.94l2,1.85c.21.2.41.41.6.6h4.6v3.67l2.84,2.84h9.44c.49-.44.9-.91,1.4-1.31a16.46,16.46,0,0,0,1.47-1.43V11.28h1.81V7.46H19.64V20.58H12.21V17.89s0,0,0-.05l0,0H15l3-3c0-1.09,0-2.17,0-3.26a.4.4,0,0,0-.17-.4H14.06V14H12.2V7.46H6.52v3.66l.17.18H8.35v2.63H4.67V4.68c1.64-.08,8.92,0,9.42,0V7.43H17.9V3.77Z"/><path class="cls-2" d="M14.94.81l3,3V7.43H14.09V4.72c-.5-.09-7.78-.12-9.42,0v9.25H8.35V11.3H6.69l-.17-.18V7.46H12.2V14h1.86V11.18h3.69a.4.4,0,0,1,.17.4c0,1.09,0,2.17,0,3.26l-3,3H12.27l0,0s0,0,0,.05v2.69h7.43V7.46h5.69v3.82H23.52V21.57A16.46,16.46,0,0,1,22.05,23c-.5.4-.91.87-1.4,1.31H11.21L8.37,21.47V17.8H3.77c-.19-.19-.39-.4-.6-.6l-2-1.85a1.17,1.17,0,0,1-.41-.94c0-3.54,0-7.09,0-10.62l3-3Zm9.84,7.1H20.24c-.25.12-.11.34-.11.5q0,6.11,0,12.21c0,.15,0,.3,0,.42H11.75V17.31a.08.08,0,0,1,0,0s0,0,0,0h3l2.51-2.5V11.65H14.52v2.76H11.75V12.6c0-1.48,0-2.95,0-4.42,0-.09.08-.25-.11-.27H7v2.8H8.82V14.4H4.2V4.1H14.55V7h2.69l.05,0s0,0,0,0v-3L14.81,1.4H3.93L1.4,3.93V14.81L3,16.29c.32.31.62.63,1,1H8.85v4l1.63,1.62c.3.3.61.58.92.87l.11.11h8.85l.11-.11a26.36,26.36,0,0,0,2.58-2.49V10.7c.32,0,.63,0,.94,0a6.74,6.74,0,0,0,.9,0V8Z"/><path class="cls-3" d="M20.36,23.85H11.51l-.11-.11c-.31-.29-.62-.57-.92-.87L8.85,21.25v-4H3.91c-.33-.33-.63-.65-1-1L1.4,14.81V3.93L3.93,1.4H14.81l2.52,2.52v3s0,0,0,0l-.05,0H14.55V4.1H4.2V14.4H8.82V10.71H7V7.91h4.52l0,.1.08-.1c.19,0,.11.18.11.27,0,1.47,0,2.94,0,4.42v1.81h2.77V11.65h2.79v3.07l-2.51,2.5h-3s0,0,0,0a.08.08,0,0,0,0,0V21H20.1c0-.12,0-.27,0-.42q0-6.1,0-12.21c0-.16-.14-.38.11-.5l0,.1.08-.1h4.42l.11.12v2.66a6.74,6.74,0,0,1-.9,0c-.31,0-.62,0-.94,0V21.25a26.36,26.36,0,0,1-2.58,2.49Z"/><path class="cls-4" d="M11.63,7.91l-.08.1,0-.1Z"/><path class="cls-4" d="M20.36,7.91l-.08.1,0-.1Z"/><path class="cls-4" d="M24.89,8l-.11-.12Z"/><path class="cls-4" d="M11.4,23.74l.11.11Z"/><path class="cls-4" d="M20.36,23.85l.11-.11Z"/></g></g></svg>