<svg xmlns="http://www.w3.org/2000/svg" xmlns:xlink="http://www.w3.org/1999/xlink" version="1.1" x="0px" y="0px" viewBox="0 0 100 100" enable-background="new 0 0 100 100" xml:space="preserve"><path d="M45.644,32.359c-0.372,0.177-0.533,0.624-0.354,0.999L53.21,50l-7.921,16.642c-0.177,0.374-0.019,0.822,0.354,1  c0.374,0.178,0.821,0.019,1-0.355l8.073-16.964c0.005-0.011,0.003-0.022,0.008-0.033c0.038-0.091,0.064-0.188,0.065-0.287v-0.004  c-0.001-0.101-0.027-0.195-0.065-0.286c-0.005-0.012-0.003-0.023-0.008-0.034l-8.073-16.964  C46.465,32.34,46.018,32.181,45.644,32.359z M24.253,50c0,14.198,11.552,25.75,25.75,25.75c14.199,0,25.75-11.552,25.75-25.75  s-11.551-25.75-25.75-25.75C35.805,24.25,24.253,35.802,24.253,50z M74.253,50c0,13.371-10.878,24.25-24.25,24.25  c-13.371,0-24.25-10.879-24.25-24.25s10.879-24.25,24.25-24.25C63.375,25.75,74.253,36.629,74.253,50z"></path></svg>